<?xml version="1.0" ?><svg id="Livello_1" style="enable-background:new 0 0 100 100;" version="1.1" viewBox="0 0 100 100" xml:space="preserve" xmlns="http://www.w3.org/2000/svg" xmlns:xlink="http://www.w3.org/1999/xlink"><rect height="30" width="4" x="48.4" y="37.1"/><path d="M50.5,71.7c-0.6,0-1.2-0.3-1.6-0.8c-1.2-1.6-3.8-2.8-6-2.8H28.4c-1.1,0-2-0.9-2-2V34c0-1.6,1.4-2.9,3.1-2.9h13  c2.8,0,5.7,1.2,7.8,3.2c2.1-1.9,5.3-3.2,8.2-3.2h13c1.6,0,2.9,1.3,2.9,2.9v32.1c0,1.1-0.9,2-2,2H58.1c-2.2,0-4.8,1.2-6,2.8  C51.7,71.4,51.1,71.7,50.5,71.7z M30.4,64.1h12.6c2.7,0,5.5,1.1,7.6,2.7c2.1-1.7,4.9-2.7,7.6-2.7h12.3v-29H58.5  c-2.4,0-5.4,1.5-6.5,3.2c-0.2,0.3-0.4,0.6-0.7,0.7c-0.9,0.6-2.2,0.3-2.7-0.7c-1.1-1.8-3.8-3.3-6-3.3H30.4V64.1z"/></svg>